<?xml version="1.0" encoding="UTF-8" standalone="no"?>
<svg
   xmlns:svg="http://www.w3.org/2000/svg"
   xmlns="http://www.w3.org/2000/svg"
   width="800.0"
   height="240.0"

>
    <g transform="scale(5.782334189269574, -5.782334189269574)   translate(12.807058886491223,-21.901548826234627)" stroke-width="0.17294054049240629"  fill="none">
       <!-- hidden lines -->
       <g  stroke="rgb(160,160,160)" fill="none" stroke-dasharray="0.17294054049240629,0.17294054049240629" >
			<path d="M24.98894308047077,13.292573179616587 L25.00726633096211,13.280295321044777 L25.02044782734674,13.267747740753753 L25.028394242132308,13.25501927798979 L25.031049313196256,13.242200052681351 " />
			<path d="M25.031049313196256,13.242200052681351 L25.027437858200404,13.227254015134363 L25.01663827349868,13.212451916099287 L24.998754564995412,13.197936307881482 L24.973958962579722,13.183846983723125 L24.94249026145752,13.170319631517867 L24.904651522423165,13.157484527062248 L24.86080715321831,13.14546527942856 L24.811379399086167,13.134377640541901 L24.69772698796096,13.115414308852566 L24.568061887470076,13.101323282196308 L24.427367054708355,13.092646070825188 L24.28104931319626,13.08971613510596 L24.134731571684163,13.092646070825188 L23.994036738922443,13.101323282196308 L23.86437163843156,13.115414308852566 L23.75071922730635,13.134377640541901 L23.70129147317421,13.14546527942856 L23.657447103969353,13.157484527062248 L23.619608364934994,13.170319631517867 L23.588139663812797,13.183846983723125 L23.563344061397107,13.197936307881482 L23.54546035289384,13.212451916099287 L23.534660768192115,13.227254015134363 L23.531049313196263,13.24220005268135 " />
			<path d="M23.531049313196263,13.242200052681351 L23.533928656956697,13.255548720873426 L23.542544579916687,13.268794894653583 L23.55683092686553,13.281836866587627 L23.576678003659364,13.294574497154192 L23.601933419480247,13.306909983641026 L23.632403256930953,13.31874861109867 L23.708012135332996,13.34057620212029 L23.801186920935727,13.359388166270636 L23.90907142970682,13.374607840761852 L24.02835856510407,13.385768681013479 L24.15539169396027,13.392528562130805 L24.28627673707932,13.394680266416648 L24.41700153851358,13.392157835431892 L24.543558854371156,13.385038591888415 L24.662069191048833,13.373540769395227 L24.768899727401976,13.3580168227157 L24.860775675405883,13.338942623603524 L24.9002051873338,13.328253116977807 L24.934880665653896,13.316902873408763 L24.96453586337379,13.304979042904389 L24.98894308047077,13.29257317961659 " />
			<path d="M22.78104931319626,-11.235650590090483 L22.7828561288885,-11.220686527674966 L22.788272223187963,-11.205758514996505 L22.79728454824909,-11.190902514945183 L22.809871392591415,-11.176154316926354 L22.826002433404444,-11.161549450640836 L22.845638809597947,-11.147123100490745 L22.89523001442933,-11.118944452174029 L22.958167416673728,-11.091889747763513 L23.03384489474244,-11.066219538852277 L23.121533633152154,-11.042181043584899 L23.220389141416437,-11.02000576581158 L23.32945938695079,-10.999907265579521 L23.447693963666858,-10.982079102432913 L23.573954207957264,-10.966692971328722 L23.707024164648626,-10.953897049120396 L23.845622297314566,-10.943814567533765 L23.988413830172068,-10.936542626378154 L24.13402360270192,-10.932151258422136 L24.28104931319626,-10.930682754939697 L24.4280750236906,-10.932151258422136 L24.57368479622045,-10.936542626378154 L24.716476329077953,-10.943814567533765 L24.855074461743893,-10.953897049120396 L24.988144418435255,-10.966692971328722 L25.11440466272566,-10.982079102432913 L25.232639239441728,-10.999907265579521 L25.341709484976082,-11.02000576581158 L25.440564993240365,-11.042181043584899 L25.52825373165008,-11.066219538852277 L25.60393120971879,-11.091889747763513 L25.66686861196319,-11.118944452174029 L25.716459816794572,-11.147123100490745 L25.736096192988075,-11.161549450640836 L25.752227233801104,-11.176154316926354 L25.76481407814343,-11.190902514945183 L25.773826403204556,-11.205758514996505 L25.77924249750402,-11.220686527674966 L25.78104931319626,-11.235650590090481 " />
			<path d="M22.39935657958104,-3.297194689870354 L22.400988987385016,-3.282051677199386 L22.405883075790783,-3.2669377463779 L22.414029445800566,-3.2518819234042744 L22.425412452475573,-3.236913122681941 L22.440010234981763,-3.222060091489859 L22.457794758573158,-3.2073513547739467 L22.502781355262357,-3.178479424731804 L22.56002682506931,-3.150519017899026 L22.629091624062585,-3.1236848207335144 L22.709445456772944,-3.0981828723953764 L22.800471347924358,-3.0742089827306924 L22.901470379712617,-3.05194722879832 L23.011667058257544,-3.0315685414837423 L23.130215268024028,-3.0132293930522738 L23.256204768492406,-2.9970705957188875 L23.38866818319531,-2.983216220459524 L23.52658842745746,-2.9717726443654993 L23.668906517806608,-2.9628277338556397 L23.814529703093058,-2.9564501700176384 L23.962339854885265,-2.9526889212588086 L24.111202052718017,-2.9515728673153467 L24.259973298273756,-2.9531105775070565 L24.40751129158751,-2.9572902449401277 L24.552683201889685,-2.9640797771631964 L24.694374365742238,-2.9734270425805924 L24.83149684568183,-2.9852602707307656 L24.962997783654828,-2.9994886033564563 L25.087867485104468,-3.0160027920353683 L25.20514717163872,-3.0346760370147727 L25.313936342752136,-3.055364960809281 L25.413399690076552,-3.077910709086271 L25.502773511071606,-3.1021401703861273 L25.58137157290909,-3.127867305311982 L25.648590381527047,-3.1548945749831527 L25.70391381539644,-3.183014457784265 " />
			<path d="M25.703913815396444,-2.203900432073393 L25.663181957269707,-2.182538528269688 L25.615578623318974,-2.161772198961188 L25.561312983419,-2.1416926917589327 L25.500623481732397,-2.122388236365719 L25.43377678898184,-2.103943656893255 L25.361066630694307,-2.086439999143546 L25.28281249656599,-2.0699541744922323 L25.199358236619076,-2.054558621938672 L25.01833737528937,-2.027303838501826 L24.821182186878406,-2.0051541545782405 L24.611354078099456,-1.9884984468961804 L24.392536951112096,-1.977629135750793 L24.168572526128894,-1.9727370510505906 L23.943392893248102,-1.9739080819621715 L23.720951477683773,-1.981121668974566 L23.505153630420313,-1.9942511648576784 L23.299788062894876,-2.0130660581775564 L23.108460329492488,-2.03723602033077 L22.93452952568596,-2.0663367050450714 L22.855055679576584,-2.0825795538044045 L22.781049313196263,-2.0998571985258865 " />
			<path d="M26.067303522325975,-3.3941043096738897 L25.70391381538571,-3.1830144577850303 " />
			<path d="M25.781049313196256,-2.248707757370462 L25.70391381538571,-2.203900432074157 " />
			<path d="M26.067303522325965,-3.394104309673891 L26.1088352411033,-3.421933818416956 L26.12524588604893,-3.4360903283050304 L26.13871258776922,-3.450374674538606 L26.149211499579206,-3.4647615625569537 L26.156724030123147,-3.4792255162194996 L26.161236876295884,-3.4937409229186867 L26.162742046799835,-3.508282078934493 " />
			<path d="M22.865261778647234,-3.5034846382739673 L22.82861527766455,-3.478928921130346 L22.802252284895292,-3.453833760548297 L22.792988317588627,-3.4411392985554072 L22.786359455324156,-3.4283768350203725 L22.782377436698912,-3.415568970113556 L22.78104931319626,-3.402738384403497 " />
			<path d="M22.78104931319626,-3.402738384403494 L22.7828561288885,-3.387774321987978 L22.788272223187963,-3.3728463093095176 L22.79728454824909,-3.357990309258195 L22.809871392591415,-3.343242111239366 L22.826002433404444,-3.3286372449538475 L22.845638809597947,-3.3142108948037565 L22.89523001442933,-3.2860322464870406 L22.958167416673728,-3.2589775420765252 L23.03384489474244,-3.233307333165289 L23.121533633152154,-3.2092688378979104 L23.220389141416437,-3.187093560124593 L23.32945938695079,-3.166995059892533 L23.447693963666858,-3.1491668967459243 L23.573954207957264,-3.133780765641733 L23.707024164648626,-3.1209848434334075 L23.845622297314566,-3.110902361846777 L23.988413830172068,-3.1036304206911653 L24.13402360270192,-3.0992390527351485 L24.28104931319626,-3.097770549252709 L24.4280750236906,-3.0992390527351485 L24.57368479622045,-3.1036304206911653 L24.716476329077953,-3.110902361846777 L24.855074461743893,-3.1209848434334075 L24.988144418435255,-3.133780765641733 L25.11440466272566,-3.1491668967459243 L25.232639239441728,-3.166995059892533 L25.341709484976082,-3.187093560124593 L25.440564993240365,-3.2092688378979104 L25.52825373165008,-3.2333073331652886 L25.60393120971879,-3.2589775420765252 L25.66686861196319,-3.2860322464870406 L25.716459816794572,-3.3142108948037565 L25.736096192988075,-3.3286372449538475 L25.752227233801104,-3.3432421112393658 L25.76481407814343,-3.3579903092581946 L25.773826403204556,-3.372846309309517 L25.77924249750402,-3.387774321987978 L25.78104931319626,-3.402738384403493 " />
			<path d="M25.78104931319626,-3.402738384403494 L25.779608949767105,-3.416099882871403 L25.775290625675392,-3.4294357207876427 L25.768102634195913,-3.442720286881238 L25.75805877975541,-3.455928068347957 L25.74517835142138,-3.4690336998472606 L25.729486085857726,-3.482012012216045 L25.689791932270055,-3.5074872733491755 L25.63928110062829,-3.5321582463228447 L25.57834142572688,-3.555835501238131 L25.507440817626343,-3.5783372382118217 L25.427123668922793,-3.5994906832813736 L25.3380066747655,-3.6191334150065924 L25.24077409771733,-3.637114611582062 L25.136172513815712,-3.653296208884677 L25.025005080175145,-3.6675539605644984 L24.908125368146074,-3.6797783920392937 L24.786430809380636,-3.689875641067752 L24.66085580512806,-3.6977681784472387 L24.532364551668245,-3.703395403302401 L24.401943636971637,-3.7067141083938377 L24.27059446543014,-3.707698811874088 L24.139325568823793,-3.706341952943628 L24.009144862561616,-3.702653949904578 L23.881051906655088,-3.6966631201663747 L23.756030230846466,-3.6884154628176224 L23.635039782821504,-3.6779743054335885 L23.519009557491113,-3.665419817831248 L23.40883046393617,-3.650848396505382 L23.305348484784822,-3.6343719244721924 L23.20935818054637,-3.6161169122035255 L23.121596588777006,-3.596223526247841 L23.042737564921172,-3.5748445129964073 L22.973386608280983,-3.5521440258583166 L22.91407621284119,-3.528296364849569 L22.865261778647238,-3.50348463827397 " />
			<path d="M25.78104931319626,-2.4236243586926207 L25.77924249750402,-2.4086602962771044 L25.773826403204556,-2.393732283598644 L25.76481407814343,-2.3788762835473216 L25.752227233801104,-2.3641280855284923 L25.736096192988075,-2.349523219242974 L25.716459816794572,-2.335096869092883 L25.66686861196319,-2.306918220776167 L25.60393120971879,-2.2798635163656518 L25.52825373165008,-2.254193307454415 L25.440564993240365,-2.230154812187037 L25.341709484976082,-2.2079795344137194 L25.232639239441728,-2.1878810341816597 L25.11440466272566,-2.170052871035051 L24.988144418435255,-2.1546667399308594 L24.855074461743893,-2.141870817722534 L24.716476329077953,-2.1317883361359034 L24.57368479622045,-2.124516394980292 L24.4280750236906,-2.120125027024275 L24.28104931319626,-2.1186565235418353 L24.13402360270192,-2.120125027024275 L23.988413830172068,-2.124516394980292 L23.845622297314566,-2.1317883361359034 L23.707024164648626,-2.141870817722534 L23.573954207957264,-2.1546667399308594 L23.447693963666858,-2.170052871035051 L23.32945938695079,-2.1878810341816597 L23.220389141416437,-2.2079795344137194 L23.121533633152154,-2.230154812187037 L23.03384489474244,-2.2541933074544156 L22.958167416673728,-2.2798635163656518 L22.89523001442933,-2.306918220776167 L22.845638809597947,-2.335096869092883 L22.826002433404444,-2.349523219242974 L22.809871392591415,-2.3641280855284923 L22.79728454824909,-2.378876283547321 L22.788272223187963,-2.3937322835986437 L22.7828561288885,-2.4086602962771044 L22.78104931319626,-2.4236243586926194 " />
			<path d="M22.39935657958104,-9.171878844135595 L22.400988987385016,-9.156735831464626 L22.405883075790783,-9.141621900643141 L22.414029445800566,-9.126566077669516 L22.425412452475573,-9.111597276947181 L22.440010234981763,-9.096744245755099 L22.457794758573158,-9.082035509039187 L22.502781355262357,-9.053163578997044 L22.56002682506931,-9.025203172164266 L22.629091624062585,-8.998368974998755 L22.709445456772944,-8.972867026660618 L22.800471347924358,-8.948893136995933 L22.901470379712617,-8.926631383063562 L23.011667058257544,-8.906252695748984 L23.130215268024028,-8.887913547317515 L23.256204768492406,-8.871754749984127 L23.38866818319531,-8.857900374724766 L23.52658842745746,-8.84645679863074 L23.668906517806608,-8.837511888120881 L23.814529703093058,-8.83113432428288 L23.962339854885265,-8.827373075524049 L24.111202052718017,-8.826257021580588 L24.259973298273756,-8.827794731772297 L24.40751129158751,-8.831974399205368 L24.552683201889685,-8.838763931428437 L24.694374365742238,-8.848111196845833 L24.83149684568183,-8.859944424996007 L24.962997783654828,-8.874172757621697 L25.087867485104468,-8.890686946300608 L25.20514717163872,-8.909360191280014 L25.313936342752136,-8.930049115074521 L25.413399690076552,-8.952594863351512 L25.502773511071606,-8.976824324651368 L25.58137157290909,-9.002551459577223 L25.648590381527047,-9.029578729248394 L25.70391381539644,-9.057698612049506 " />
			<path d="M25.703913815396444,-8.078584586338634 L25.663181957269707,-8.057222682534928 L25.615578623318974,-8.036456353226429 L25.561312983419,-8.016376846024173 L25.500623481732397,-7.997072390630959 L25.43377678898184,-7.9786278111584945 L25.361066630694307,-7.961124153408786 L25.28281249656599,-7.944638328757472 L25.199358236619076,-7.929242776203912 L25.01833737528937,-7.901987992767066 L24.821182186878406,-7.87983830884348 L24.611354078099456,-7.86318260116142 L24.392536951112096,-7.852313290016033 L24.168572526128894,-7.847421205315831 L23.943392893248102,-7.848592236227411 L23.720951477683773,-7.855805823239806 L23.505153630420313,-7.868935319122919 L23.299788062894876,-7.887750212442796 L23.108460329492488,-7.91192017459601 L22.93452952568596,-7.941020859310311 L22.855055679576584,-7.957263708069645 L22.781049313196263,-7.974541352791126 " />
			<path d="M26.067303522325975,-9.268788463939131 L25.70391381538571,-9.057698612050272 " />
			<path d="M25.781049313196256,-8.123391911635702 L25.70391381538571,-8.078584586339398 " />
			<path d="M26.067303522325965,-9.268788463939131 L26.1088352411033,-9.296617972682196 L26.12524588604893,-9.31077448257027 L26.13871258776922,-9.325058828803845 L26.149211499579206,-9.339445716822194 L26.156724030123147,-9.35390967048474 L26.161236876295884,-9.368425077183927 L26.162742046799835,-9.382966233199733 " />
			<path d="M22.865261778647234,-9.378168792539208 L22.82861527766455,-9.353613075395586 L22.802252284895292,-9.328517914813537 L22.792988317588627,-9.315823452820647 L22.786359455324156,-9.303060989285612 L22.782377436698912,-9.290253124378797 L22.78104931319626,-9.277422538668738 " />
			<path d="M22.78104931319626,-9.277422538668734 L22.7828561288885,-9.262458476253217 L22.788272223187963,-9.247530463574757 L22.79728454824909,-9.232674463523434 L22.809871392591415,-9.217926265504605 L22.826002433404444,-9.203321399219087 L22.845638809597947,-9.188895049068996 L22.89523001442933,-9.16071640075228 L22.958167416673728,-9.133661696341765 L23.03384489474244,-9.107991487430528 L23.121533633152154,-9.08395299216315 L23.220389141416437,-9.061777714389832 L23.32945938695079,-9.041679214157773 L23.447693963666858,-9.023851051011164 L23.573954207957264,-9.008464919906974 L23.707024164648626,-8.995668997698647 L23.845622297314566,-8.985586516112017 L23.988413830172068,-8.978314574956405 L24.13402360270192,-8.973923207000388 L24.28104931319626,-8.972454703517949 L24.4280750236906,-8.973923207000388 L24.57368479622045,-8.978314574956405 L24.716476329077953,-8.985586516112017 L24.855074461743893,-8.995668997698647 L24.988144418435255,-9.008464919906974 L25.11440466272566,-9.023851051011164 L25.232639239441728,-9.041679214157773 L25.341709484976082,-9.061777714389832 L25.440564993240365,-9.08395299216315 L25.52825373165008,-9.107991487430528 L25.60393120971879,-9.133661696341765 L25.66686861196319,-9.16071640075228 L25.716459816794572,-9.188895049068996 L25.736096192988075,-9.203321399219087 L25.752227233801104,-9.217926265504605 L25.76481407814343,-9.232674463523434 L25.773826403204556,-9.247530463574757 L25.77924249750402,-9.262458476253217 L25.78104931319626,-9.277422538668732 " />
			<path d="M25.78104931319626,-9.277422538668734 L25.779608949767105,-9.290784037136643 L25.775290625675392,-9.304119875052884 L25.768102634195913,-9.317404441146477 L25.75805877975541,-9.330612222613198 L25.74517835142138,-9.343717854112501 L25.729486085857726,-9.356696166481285 L25.689791932270055,-9.382171427614416 L25.63928110062829,-9.406842400588085 L25.57834142572688,-9.430519655503371 L25.507440817626343,-9.453021392477062 L25.427123668922793,-9.474174837546613 L25.3380066747655,-9.493817569271831 L25.24077409771733,-9.511798765847303 L25.136172513815712,-9.527980363149917 L25.025005080175145,-9.542238114829738 L24.908125368146074,-9.554462546304533 L24.786430809380636,-9.564559795332991 L24.66085580512806,-9.572452332712478 L24.532364551668245,-9.57807955756764 L24.401943636971637,-9.581398262659077 L24.27059446543014,-9.582382966139328 L24.139325568823793,-9.581026107208867 L24.009144862561616,-9.577338104169817 L23.881051906655088,-9.571347274431615 L23.756030230846466,-9.563099617082862 L23.635039782821504,-9.55265845969883 L23.519009557491113,-9.540103972096487 L23.40883046393617,-9.525532550770622 L23.305348484784822,-9.509056078737432 L23.20935818054637,-9.490801066468766 L23.121596588777006,-9.470907680513081 L23.042737564921172,-9.449528667261648 L22.973386608280983,-9.426828180123557 L22.91407621284119,-9.40298051911481 L22.865261778647238,-9.37816879253921 " />
			<path d="M25.78104931319626,-8.29830851295786 L25.77924249750402,-8.283344450542343 L25.773826403204556,-8.268416437863882 L25.76481407814343,-8.25356043781256 L25.752227233801104,-8.238812239793731 L25.736096192988075,-8.224207373508213 L25.716459816794572,-8.209781023358122 L25.66686861196319,-8.181602375041406 L25.60393120971879,-8.15454767063089 L25.52825373165008,-8.128877461719654 L25.440564993240365,-8.104838966452276 L25.341709484976082,-8.082663688678958 L25.232639239441728,-8.062565188446898 L25.11440466272566,-8.04473702530029 L24.988144418435255,-8.0293508941961 L24.855074461743893,-8.016554971987773 L24.716476329077953,-8.006472490401142 L24.57368479622045,-7.999200549245531 L24.4280750236906,-7.994809181289514 L24.28104931319626,-7.993340677807074 L24.13402360270192,-7.994809181289514 L23.988413830172068,-7.999200549245531 L23.845622297314566,-8.006472490401142 L23.707024164648626,-8.016554971987773 L23.573954207957264,-8.0293508941961 L23.447693963666858,-8.04473702530029 L23.32945938695079,-8.062565188446898 L23.220389141416437,-8.082663688678958 L23.121533633152154,-8.104838966452276 L23.03384489474244,-8.128877461719654 L22.958167416673728,-8.15454767063089 L22.89523001442933,-8.181602375041406 L22.845638809597947,-8.209781023358122 L22.826002433404444,-8.224207373508213 L22.809871392591415,-8.238812239793731 L22.79728454824909,-8.25356043781256 L22.788272223187963,-8.268416437863882 L22.7828561288885,-8.283344450542343 L22.78104931319626,-8.298308512957858 " />
			<path d="M23.53104931319626,18.13777018123572 L23.53104931319626,13.242200052681353 " />
			<path d="M25.031049313196256,18.137770181235723 L25.031049313196256,13.242200052681357 " />
			<path d="M25.78104931319626,-10.874065169987478 L25.620662696379718,-10.849315030811924 L25.451040284646428,-10.827478582547236 L25.273318983279523,-10.808690005686367 L25.088692604435185,-10.793065095918307 L24.898411867142617,-10.78070126412808 L24.703784397304073,-10.771677536396751 L24.50617472769483,-10.766054554001425 L24.3070042979632,-10.763874573415238 L24.10552788383722,-10.765188843958002 L23.90529243949464,-10.770024766203347 L23.707766926159593,-10.778345586035998 L23.514365859955383,-10.790094470473543 L23.3264493119045,-10.805194507666426 L23.145322907928605,-10.823548706897965 L22.972237828848538,-10.845039998584332 L22.80839081038432,-10.869531234274564 L22.781049313196267,-10.874061503408399 " />
			<path d="M25.781049313196256,-3.7265055445646054 L25.781049313196256,-3.402738384403494 " />
			<path d="M22.78104931319626,-3.5776549857389446 L22.78104931319626,-3.402738384403496 " />
			<path d="M25.781049313196256,-9.601189698829845 L25.781049313196256,-9.277422538668734 " />
			<path d="M22.78104931319626,-9.452339140004185 L22.78104931319626,-9.277422538668736 " />

       </g>

       <!-- solid lines -->
       <g  stroke="rgb(0,0,0)" fill="none">
			<path d="M24.98894308047077,18.188143308170957 L25.00726633096211,18.175865449599144 L25.02044782734674,18.16331786930812 L25.028394242132308,18.15058940654416 L25.031049313196256,18.13777018123572 " />
			<path d="M25.031049313196256,18.13777018123572 L25.027437858200404,18.12282414368873 L25.01663827349868,18.108022044653655 L24.998754564995412,18.093506436435852 L24.973958962579722,18.079417112277493 L24.94249026145752,18.065889760072235 L24.904651522423165,18.053054655616616 L24.86080715321831,18.04103540798293 L24.811379399086167,18.029947769096268 L24.69772698796096,18.010984437406936 L24.568061887470076,17.996893410750676 L24.427367054708355,17.988216199379554 L24.28104931319626,17.985286263660328 L24.134731571684163,17.988216199379554 L23.994036738922443,17.996893410750676 L23.86437163843156,18.010984437406936 L23.75071922730635,18.029947769096268 L23.70129147317421,18.04103540798293 L23.657447103969353,18.053054655616616 L23.619608364934994,18.065889760072235 L23.588139663812797,18.079417112277493 L23.563344061397107,18.093506436435852 L23.54546035289384,18.108022044653655 L23.534660768192115,18.12282414368873 L23.531049313196263,18.13777018123572 " />
			<path d="M23.531049313196263,18.13777018123572 L23.533928656956697,18.151118849427792 L23.542544579916687,18.16436502320795 L23.55683092686553,18.177406995141993 L23.576678003659364,18.19014462570856 L23.601933419480247,18.202480112195396 L23.632403256930953,18.214318739653038 L23.708012135332996,18.236146330674657 L23.801186920935727,18.254958294825002 L23.90907142970682,18.270177969316222 L24.02835856510407,18.28133880956785 L24.15539169396027,18.28809869068517 L24.28627673707932,18.290250394971014 L24.41700153851358,18.28772796398626 L24.543558854371156,18.280608720442782 L24.662069191048833,18.269110897949595 L24.768899727401976,18.25358695127007 L24.860775675405883,18.234512752157894 L24.9002051873338,18.223823245532177 L24.934880665653896,18.21247300196313 L24.96453586337379,18.200549171458757 L24.98894308047077,18.188143308170957 " />
			<path d="M22.865261778647234,-11.336396843960957 L22.82861527766455,-11.311841126817335 L22.802252284895292,-11.286745966235285 L22.792988317588627,-11.274051504242395 L22.786359455324156,-11.26128904070736 L22.782377436698912,-11.248481175800546 L22.78104931319626,-11.235650590090486 " />
			<path d="M25.78104931319626,-11.235650590090483 L25.779608949767105,-11.249012088558391 L25.775290625675392,-11.262347926474632 L25.768102634195913,-11.275632492568226 L25.75805877975541,-11.288840274034946 L25.74517835142138,-11.30194590553425 L25.729486085857726,-11.314924217903034 L25.689791932270055,-11.340399479036165 L25.63928110062829,-11.365070452009833 L25.57834142572688,-11.38874770692512 L25.507440817626343,-11.41124944389881 L25.427123668922793,-11.432402888968362 L25.3380066747655,-11.45204562069358 L25.24077409771733,-11.470026817269051 L25.136172513815712,-11.486208414571665 L25.025005080175145,-11.500466166251487 L24.908125368146074,-11.512690597726282 L24.786430809380636,-11.52278784675474 L24.66085580512806,-11.530680384134227 L24.532364551668245,-11.53630760898939 L24.401943636971637,-11.539626314080826 L24.27059446543014,-11.540611017561076 L24.139325568823793,-11.539254158630616 L24.009144862561616,-11.535566155591566 L23.881051906655088,-11.529575325853363 L23.756030230846466,-11.521327668504611 L23.635039782821504,-11.510886511120578 L23.519009557491113,-11.498332023518236 L23.40883046393617,-11.48376060219237 L23.305348484784822,-11.46728413015918 L23.20935818054637,-11.449029117890515 L23.121596588777006,-11.42913573193483 L23.042737564921172,-11.407756718683396 L22.973386608280983,-11.385056231545306 L22.91407621284119,-11.361208570536558 L22.865261778647238,-11.336396843960959 " />
			<path d="M22.49479764527567,-3.4113739353121946 L22.858182420897027,-3.6224609226417153 " />
			<path d="M22.49479764527567,-2.432259909601321 L22.858182420897027,-2.643346896930842 " />
			<path d="M22.49479764527564,-3.4113739353121963 L22.453264826648443,-3.3835440861808053 L22.43685374455108,-3.369387396430066 L22.423386683025736,-3.355102865205146 L22.412887490035455,-3.3407157880742093 L22.40537475793359,-3.326251642197447 L22.400861790539775,-3.3117360412111903 L22.39935657958104,-3.297194689870357 " />
			<path d="M22.78104931319626,-2.099857198525888 L22.694286073743626,-2.1235188470035347 L22.61776789146817,-2.148599140974743 L22.552052697910867,-2.174915207733349 L22.49761965473129,-2.202275163948589 L22.4548656599053,-2.230479514780437 L22.43796911742188,-2.244834271771252 L22.4241024537475,-2.259322608494182 L22.413290957570915,-2.2739181025129116 L22.40555434585996,-2.288594135967945 L22.40090672790366,-2.303323944119703 L22.39935657958104,-2.3180806641594796 " />
			<path d="M22.39935657958104,-2.318080664159481 L22.400861790539775,-2.3326220155003172 L22.40537475793359,-2.3471376164865734 L22.412887490035455,-2.361601762363336 L22.423386683025736,-2.3759888394942723 L22.43685374455108,-2.3902733707191923 L22.453264826648443,-2.4044300604699314 L22.494797645275636,-2.432259909601321 " />
			<path d="M26.067303522325975,-2.414990283963016 L25.781049313196256,-2.248707757370462 " />
			<path d="M26.162742046799835,-3.508282078934495 L26.161109634042965,-3.5234251145670994 L26.156215530797546,-3.538539068217887 L26.148069136118366,-3.553594913756568 L26.136686095039067,-3.5685637366486453 L26.122088268526085,-3.583416789485361 L26.104303691494977,-3.59812554719268 L26.05931696048871,-3.6269975167563775 L26.002071321572984,-3.654957959020472 L25.933006321310668,-3.6817921866039445 L25.852652258324596,-3.7072941594882853 L25.761626111529978,-3.7312680670451197 L25.660626802813496,-3.7535298315199688 L25.550429830533453,-3.773908521428028 L25.431881315046308,-3.7922476640095435 L25.305891501979556,-3.808406446667426 L25.173427773134495,-3.8222607981621524 L25.035507218682927,-3.833704341262275 L24.89318882769034,-3.8426492095358333 L24.74756535692878,-3.8490267220111503 L24.599754940412634,-3.8527879105267853 L24.450892504081544,-3.8539038957215204 L24.30212105155063,-3.852366108777436 L24.154582887838277,-3.8481863572134714 L24.00941084845791,-3.841396734224295 L23.86771960121906,-3.8320493722605993 L23.730597087524657,-3.8202160427428953 L23.59909616888046,-3.80598760498231 L23.474226542756877,-3.789473308539704 L23.356946989875194,-3.770799954379783 L23.248158012445554,-3.7501109212610646 L23.148694919882153,-3.7275650648373384 L23.059321415085286,-3.7033354979235864 L22.98072373053641,-3.677608261291798 L22.913505359230758,-3.650580895202646 L22.85818242090477,-3.6224609226411677 " />
			<path d="M22.858182420904768,-2.643346896930291 L22.913505359230758,-2.671466869491772 L22.98072373053641,-2.6984942355809247 L23.059321415085286,-2.724221472212713 L23.148694919882153,-2.748451039126465 L23.248158012445554,-2.770996895550191 L23.356946989875194,-2.7916859286689095 L23.474226542756877,-2.8103592828288306 L23.59909616888046,-2.8268735792714366 L23.730597087524657,-2.841102017032022 L23.86771960121906,-2.852935346549726 L24.00941084845791,-2.8622827085134217 L24.154582887838274,-2.869072331502598 L24.30212105155063,-2.8732520830665624 L24.45089250408154,-2.874789870010647 L24.59975494041263,-2.873673884815912 L24.74756535692878,-2.869912696300277 L24.89318882769034,-2.86353518382496 L25.035507218682927,-2.8545903155514014 L25.173427773134495,-2.843146772451279 L25.305891501979556,-2.8292924209565524 L25.431881315046308,-2.8131336382986705 L25.550429830533453,-2.7947944957171544 L25.660626802813496,-2.7744158058090953 L25.761626111529978,-2.7521540413342462 L25.852652258324596,-2.7281801337774123 L25.933006321310664,-2.702678160893071 L26.002071321572984,-2.675843933309599 L26.05931696048871,-2.647883491045504 L26.104303691494977,-2.6190115214818066 L26.122088268526085,-2.6043027637744873 L26.136686095039067,-2.5894497109377723 L26.148069136118366,-2.574480888045695 L26.156215530797546,-2.5594250425070135 L26.161109634042965,-2.544311088856226 L26.162742046799835,-2.5291680532236245 " />
			<path d="M26.162742046799835,-2.5291680532236214 L26.161236876295884,-2.514626897207813 L26.156724030123147,-2.5001114905086266 L26.149211499579206,-2.4856475368460806 L26.13871258776922,-2.4712606488277324 L26.125245886048933,-2.4569763025941573 L26.1088352411033,-2.4428197927060826 L26.067303522325965,-2.4149902839630175 " />
			<path d="M22.865261778647234,-2.524370612563094 L22.91407621284119,-2.549182339138695 L22.973386608280983,-2.5730300001474427 L23.04273756492117,-2.5957304872855333 L23.121596588777003,-2.617109500536967 L23.20935818054637,-2.6370028864926516 L23.30534848478482,-2.6552578987613185 L23.408830463936166,-2.6717343707945087 L23.519009557491113,-2.686305792120374 L23.6350397828215,-2.698860279722715 L23.756030230846466,-2.7093014371067485 L23.881051906655088,-2.717549094455501 L24.009144862561612,-2.7235399241937044 L24.13932556882379,-2.7272279272327546 L24.27059446543014,-2.7285847861632146 L24.401943636971637,-2.7276000826829643 L24.532364551668245,-2.7242813775915273 L24.66085580512806,-2.7186541527363652 L24.786430809380636,-2.7107616153568785 L24.908125368146074,-2.7006643663284207 L25.02500508017514,-2.6884399348536254 L25.136172513815712,-2.6741821831738037 L25.24077409771733,-2.658000585871189 L25.3380066747655,-2.640019389295719 L25.427123668922793,-2.6203766575705005 L25.507440817626343,-2.5992232125009487 L25.57834142572688,-2.5767214755272576 L25.63928110062829,-2.5530442206119717 L25.689791932270055,-2.5283732476383025 L25.729486085857726,-2.5028979865051717 L25.74517835142138,-2.4899196741363876 L25.75805877975541,-2.4768140426370837 L25.768102634195913,-2.4636062611703644 L25.775290625675392,-2.4503216950767697 L25.779608949767105,-2.4369858571605296 L25.78104931319626,-2.4236243586926234 " />
			<path d="M22.78104931319626,-2.4236243586926207 L22.782377436698912,-2.4364549444026826 L22.786359455324156,-2.4492628093094986 L22.792988317588627,-2.4620252728445333 L22.802252284895292,-2.4747197348374237 L22.82861527766455,-2.4998148954194725 L22.86526177864723,-2.5243706125630925 " />
			<path d="M22.865261778647234,18.037023927365247 L22.82861527766455,18.061579644508868 L22.802252284895292,18.086674805090915 L22.792988317588627,18.099369267083805 L22.786359455324156,18.11213173061884 L22.782377436698912,18.124939595525657 L22.78104931319626,18.137770181235716 " />
			<path d="M22.78104931319626,18.13777018123572 L22.7828561288885,18.152734243651235 L22.788272223187963,18.167662256329695 L22.79728454824909,18.18251825638102 L22.809871392591415,18.19726645439985 L22.826002433404444,18.211871320685365 L22.845638809597947,18.226297670835457 L22.89523001442933,18.25447631915217 L22.958167416673728,18.28153102356269 L23.03384489474244,18.307201232473926 L23.121533633152154,18.331239727741302 L23.220389141416437,18.35341500551462 L23.32945938695079,18.37351350574668 L23.447693963666858,18.39134166889329 L23.573954207957264,18.40672779999748 L23.707024164648626,18.419523722205806 L23.845622297314566,18.42960620379244 L23.988413830172068,18.43687814494805 L24.13402360270192,18.441269512904064 L24.28104931319626,18.442738016386503 L24.4280750236906,18.441269512904064 L24.57368479622045,18.43687814494805 L24.716476329077953,18.42960620379244 L24.855074461743893,18.419523722205806 L24.988144418435255,18.40672779999748 L25.11440466272566,18.39134166889329 L25.232639239441728,18.37351350574668 L25.341709484976082,18.35341500551462 L25.440564993240365,18.331239727741302 L25.52825373165008,18.307201232473926 L25.60393120971879,18.28153102356269 L25.66686861196319,18.25447631915217 L25.716459816794572,18.226297670835457 L25.736096192988075,18.211871320685365 L25.752227233801104,18.19726645439985 L25.76481407814343,18.18251825638102 L25.773826403204556,18.167662256329695 L25.77924249750402,18.152734243651235 L25.78104931319626,18.13777018123572 " />
			<path d="M25.78104931319626,18.13777018123572 L25.779608949767105,18.12440868276781 L25.775290625675392,18.11107284485157 L25.768102634195913,18.097788278757974 L25.75805877975541,18.084580497291256 L25.74517835142138,18.071474865791952 L25.729486085857726,18.05849655342317 L25.689791932270055,18.033021292290037 L25.63928110062829,18.008350319316367 L25.57834142572688,17.984673064401083 L25.507440817626343,17.96217132742739 L25.427123668922793,17.94101788235784 L25.3380066747655,17.92137515063262 L25.24077409771733,17.90339395405715 L25.136172513815712,17.887212356754535 L25.025005080175145,17.872954605074714 L24.908125368146074,17.86073017359992 L24.786430809380636,17.85063292457146 L24.66085580512806,17.842740387191974 L24.532364551668245,17.837113162336813 L24.401943636971637,17.833794457245375 L24.27059446543014,17.832809753765126 L24.139325568823793,17.834166612695586 L24.009144862561616,17.837854615734635 L23.881051906655088,17.84384544547284 L23.756030230846466,17.85209310282159 L23.635039782821504,17.862534260205624 L23.519009557491113,17.875088747807965 L23.40883046393617,17.889660169133833 L23.305348484784822,17.90613664116702 L23.20935818054637,17.924391653435688 L23.121596588777006,17.944285039391374 L23.042737564921172,17.965664052642808 L22.973386608280983,17.988364539780896 L22.91407621284119,18.012212200789644 L22.865261778647238,18.037023927365244 " />
			<path d="M22.49479764527567,-9.286058089577436 L22.858182420897027,-9.497145076906957 " />
			<path d="M22.49479764527567,-8.306944063866561 L22.858182420897027,-8.518031051196083 " />
			<path d="M22.49479764527564,-9.286058089577438 L22.453264826648443,-9.258228240446046 L22.43685374455108,-9.244071550695306 L22.423386683025736,-9.229787019470386 L22.412887490035455,-9.21539994233945 L22.40537475793359,-9.200935796462687 L22.400861790539775,-9.186420195476432 L22.39935657958104,-9.171878844135598 " />
			<path d="M22.78104931319626,-7.974541352791128 L22.694286073743626,-7.998203001268775 L22.61776789146817,-8.023283295239983 L22.552052697910867,-8.04959936199859 L22.49761965473129,-8.076959318213829 L22.4548656599053,-8.105163669045677 L22.43796911742188,-8.119518426036493 L22.4241024537475,-8.134006762759421 L22.413290957570915,-8.148602256778151 L22.40555434585996,-8.163278290233185 L22.40090672790366,-8.178008098384943 L22.39935657958104,-8.192764818424719 " />
			<path d="M22.39935657958104,-8.19276481842472 L22.400861790539775,-8.207306169765557 L22.40537475793359,-8.221821770751813 L22.412887490035455,-8.236285916628576 L22.423386683025736,-8.250672993759512 L22.43685374455108,-8.264957524984432 L22.453264826648443,-8.279114214735172 L22.494797645275636,-8.306944063866561 " />
			<path d="M26.067303522325975,-8.289674438228257 L25.781049313196256,-8.123391911635702 " />
			<path d="M26.162742046799835,-9.382966233199735 L26.161109634042965,-9.39810926883234 L26.156215530797546,-9.413223222483127 L26.148069136118366,-9.428279068021808 L26.136686095039067,-9.443247890913886 L26.122088268526085,-9.458100943750601 L26.104303691494977,-9.472809701457921 L26.05931696048871,-9.501681671021617 L26.002071321572984,-9.529642113285712 L25.933006321310668,-9.556476340869184 L25.852652258324596,-9.581978313753526 L25.761626111529978,-9.60595222131036 L25.660626802813496,-9.628213985785209 L25.550429830533453,-9.648592675693267 L25.431881315046308,-9.666931818274783 L25.305891501979556,-9.683090600932665 L25.173427773134495,-9.696944952427392 L25.035507218682927,-9.708388495527515 L24.89318882769034,-9.717333363801073 L24.74756535692878,-9.72371087627639 L24.599754940412634,-9.727472064792025 L24.450892504081544,-9.72858804998676 L24.30212105155063,-9.727050263042676 L24.154582887838277,-9.722870511478712 L24.00941084845791,-9.716080888489536 L23.86771960121906,-9.70673352652584 L23.730597087524657,-9.694900197008135 L23.59909616888046,-9.68067175924755 L23.474226542756877,-9.664157462804944 L23.356946989875194,-9.645484108645023 L23.248158012445554,-9.624795075526304 L23.148694919882153,-9.602249219102578 L23.059321415085286,-9.578019652188827 L22.98072373053641,-9.552292415557037 L22.913505359230758,-9.525265049467885 L22.85818242090477,-9.497145076906408 " />
			<path d="M22.858182420904768,-8.51803105119553 L22.913505359230758,-8.54615102375701 L22.98072373053641,-8.573178389846163 L23.059321415085286,-8.598905626477952 L23.148694919882153,-8.623135193391704 L23.248158012445554,-8.64568104981543 L23.356946989875194,-8.666370082934149 L23.474226542756877,-8.68504343709407 L23.59909616888046,-8.701557733536676 L23.730597087524657,-8.71578617129726 L23.86771960121906,-8.727619500814965 L24.00941084845791,-8.736966862778662 L24.154582887838274,-8.743756485767838 L24.30212105155063,-8.747936237331801 L24.45089250408154,-8.749474024275885 L24.59975494041263,-8.74835803908115 L24.74756535692878,-8.744596850565516 L24.89318882769034,-8.738219338090198 L25.035507218682927,-8.729274469816641 L25.173427773134495,-8.717830926716518 L25.305891501979556,-8.703976575221791 L25.431881315046308,-8.687817792563909 L25.550429830533453,-8.669478649982393 L25.660626802813496,-8.649099960074334 L25.761626111529978,-8.626838195599486 L25.852652258324596,-8.602864288042651 L25.933006321310664,-8.577362315158311 L26.002071321572984,-8.550528087574838 L26.05931696048871,-8.522567645310742 L26.104303691494977,-8.493695675747047 L26.122088268526085,-8.478986918039727 L26.136686095039067,-8.464133865203012 L26.148069136118366,-8.449165042310934 L26.156215530797546,-8.434109196772253 L26.161109634042965,-8.418995243121465 L26.162742046799835,-8.403852207488864 " />
			<path d="M26.162742046799835,-8.40385220748886 L26.161236876295884,-8.389311051473053 L26.156724030123147,-8.374795644773865 L26.149211499579206,-8.36033169111132 L26.13871258776922,-8.345944803092971 L26.125245886048933,-8.331660456859396 L26.1088352411033,-8.317503946971321 L26.067303522325965,-8.289674438228257 " />
			<path d="M22.865261778647234,-8.399054766828332 L22.91407621284119,-8.423866493403935 L22.973386608280983,-8.447714154412681 L23.04273756492117,-8.470414641550773 L23.121596588777003,-8.491793654802207 L23.20935818054637,-8.51168704075789 L23.30534848478482,-8.529942053026558 L23.408830463936166,-8.546418525059748 L23.519009557491113,-8.560989946385613 L23.6350397828215,-8.573544433987953 L23.756030230846466,-8.583985591371988 L23.881051906655088,-8.59223324872074 L24.009144862561612,-8.598224078458943 L24.13932556882379,-8.601912081497993 L24.27059446543014,-8.603268940428453 L24.401943636971637,-8.602284236948202 L24.532364551668245,-8.598965531856766 L24.66085580512806,-8.593338307001604 L24.786430809380636,-8.585445769622117 L24.908125368146074,-8.575348520593659 L25.02500508017514,-8.563124089118864 L25.136172513815712,-8.548866337439042 L25.24077409771733,-8.532684740136428 L25.3380066747655,-8.514703543560959 L25.427123668922793,-8.495060811835739 L25.507440817626343,-8.473907366766188 L25.57834142572688,-8.451405629792497 L25.63928110062829,-8.42772837487721 L25.689791932270055,-8.403057401903542 L25.729486085857726,-8.37758214077041 L25.74517835142138,-8.364603828401627 L25.75805877975541,-8.351498196902323 L25.768102634195913,-8.338290415435603 L25.775290625675392,-8.32500584934201 L25.779608949767105,-8.311670011425768 L25.78104931319626,-8.298308512957863 " />
			<path d="M22.78104931319626,-8.29830851295786 L22.782377436698912,-8.311139098667923 L22.786359455324156,-8.323946963574738 L22.792988317588627,-8.336709427109772 L22.802252284895292,-8.349403889102662 L22.82861527766455,-8.374499049684712 L22.86526177864723,-8.399054766828332 " />
			<path d="M21.921403422281216,-11.599383818350109 L21.964769536733314,-11.622721488485302 L22.01371577204906,-11.645598425212496 L22.068124212460393,-11.667959515987329 L22.127863783268744,-11.689750890983529 L22.19279056661547,-11.710920052870026 L22.26274814819257,-11.73141600328164 L22.417069856651032,-11.77019250429893 L22.58934270623084,-11.805706955133212 L22.77790761521663,-11.83761733220878 L22.9809486004548,-11.865616321150405 L23.19651026626401,-11.88943427638878 L23.422516635964527,-11.908841817994738 L23.65679114466849,-11.923652040733371 L23.897077600789604,-11.933722314063617 L24.14106191440148,-11.938955655748336 L24.386394383188644,-11.939301665846264 L24.630712321364314,-11.934757012091012 L24.871662813626077,-11.925365461982603 L25.106925375016502,-11.911217461282527 " />
			<path d="M25.040855290070905,-11.677015130856365 L24.850480609351987,-11.688709959265491 L24.655848514155206,-11.697017440455244 L24.45841419232419,-11.701875462646857 L24.259653782852123,-11.703247704313652 L24.061053339369387,-11.701123905742863 L23.864097719503416,-11.695519945743479 L23.670259483180537,-11.686477722926613 L23.480987882872913,-11.674064842446029 L23.297698028106208,-11.658374110540908 L23.121760305240624,-11.639522840660005 L22.954490131629566,-11.617651976355 L22.797138120759946,-11.592925037500837 L22.65088073190564,-11.565526897721742 L22.516811474202886,-11.535662402163656 L22.395932730911316,-11.503554835947401 L22.28914826498746,-11.46944425475341 L22.197256462003566,-11.433585690019546 L22.157114504595135,-11.415084238907781 L22.12094436093178,-11.396247242171066 L22.0888136701299,-11.377109925486884 L22.06078251742321,-11.357708076138882 L22.036903321801766,-11.338077976093727 L22.017220737987085,-11.318256334152863 L22.001771572926632,-11.298280217306102 L21.990584716963884,-11.278186981415379 L21.98368108981262,-11.258014201358307 L21.981073601436506,-11.237799600762175 L21.982767127907128,-11.217580981459777 L21.988758502285613,-11.197396152798992 L21.999036520544877,-11.177282860938314 L22.01358196252147,-11.157278718260548 L22.03236762785776,-11.137421133036664 L22.05535838686733,-11.117747239471356 L22.082511246228414,-11.0982938282611 L22.113775429382528,-11.079097277794594 L22.14909247148796,-11.060193486124211 L22.188396328750574,-11.041617803835708 L22.278663173772234,-11.005589036922533 L22.383901074648755,-10.971280350015267 L22.50332320886821,-10.9389482557105 L22.636036703968838,-10.90883448839712 L22.781049313196245,-10.881164196903114 " />
			<path d="M25.781049313196256,-10.88116419690311 L25.89187575321722,-10.901869788819898 L25.995803899045185,-10.924004782505822 L26.092388682914287,-10.947474385812823 L26.18121648468697,-10.97217809118516 L26.26190690316425,-10.99801010607866 L26.33411438513729,-11.024859806012676 L26.39752970520403,-11.05261220831463 L26.451881290013482,-11.081148464528296 L26.49693638126683,-11.110346369377154 L26.532502032494712,-11.140080884103172 L26.558425935342086,-11.17022467193985 L26.567735910878408,-11.185409756207575 L26.57459707182214,-11.200648643426383 L26.579002070550278,-11.215925014259188 L26.580946189745998,-11.231222509227672 L26.58042734745042,-11.24652474623166 L26.5774460992922,-11.26181533809273 L26.57200563789248,-11.27707791010325 L26.564111789445935,-11.292296117562072 L26.541000363809367,-11.322534315022883 L26.50821079605793,-11.35240043670925 L26.465883506089877,-11.381766582253585 L26.41419975868417,-11.41050699241439 L26.353380887241936,-11.438498587634747 L26.283687345935814,-11.465621495125156 L26.20541759432627,-11.491759562213554 L26.11890681922152,-11.51680085376408 L26.02452549925459,-11.540638131534429 L25.92267781832467,-11.563169313418959 L25.81379993469715,-11.584297910610871 L25.698358113174827,-11.603933440811332 L25.576846728339117,-11.621991815715985 L25.449786147412443,-11.638395701119451 L25.317720501808214,-11.653074848095706 L25.18121535691171,-11.665966393836053 L25.040855290070922,-11.677015130856363 " />
			<path d="M25.106925375016523,-11.911217461282526 L25.28629503480865,-11.89685253698395 L25.45968701295524,-11.879720241191965 L25.626070236134655,-11.859922450898337 L25.784455308502732,-11.837576893425961 L25.93390039512333,-11.812816446364756 L26.073516822578494,-11.785788347416661 L26.202474363454304,-11.756653318848398 L26.32000617327823,-11.725584611758457 L26.425413350550627,-11.692766975841488 L26.518069092754118,-11.658395560776476 L26.59742242362726,-11.6226747557715 L26.663001469538294,-11.585816974165757 L26.69050050520928,-11.567029980418415 L26.714416265476025,-11.548041390316188 L26.734713183419473,-11.528879443214205 L26.75136107397212,-11.509572636279778 L26.764335178808537,-11.490149682112131 L26.77361620316528,-11.470639466041739 L26.779190344535618,-11.45107100317279 L26.78104931319626,-11.43147339523266 " />
			<path d="M21.78104931319626,-11.431473395232654 L21.78326285236735,-11.452857704749425 L21.78989955007609,-11.474204146260783 L21.8009476538502,-11.495474918819175 L21.816387599361317,-11.516632355473993 L21.836192045070074,-11.537638989973399 L21.86032592064341,-11.55845762311074 L21.888746489058178,-11.579051388598067 L21.921403422281212,-11.599383818350107 " />
			<path d="M21.921403422281216,-12.186852233776637 L21.888746489058178,-12.166519804024595 L21.86032592064341,-12.145926038537269 L21.836192045070074,-12.125107405399927 L21.816387599361317,-12.104100770900521 L21.800947653850205,-12.082943334245705 L21.78989955007609,-12.061672561687313 L21.78326285236735,-12.040326120175953 L21.78104931319626,-12.018941810659188 " />
			<path d="M26.78104931319626,-12.018941810659182 L26.779190344535618,-12.038539418599317 L26.77361620316528,-12.058107881468267 L26.764335178808537,-12.07761809753866 L26.75136107397212,-12.097041051706306 L26.734713183419473,-12.116347858640733 L26.714416265476025,-12.135509805742714 L26.69050050520928,-12.154498395844941 L26.663001469538294,-12.173285389592285 L26.59742242362726,-12.210143171198029 L26.518069092754118,-12.245863976203005 L26.425413350550627,-12.280235391268016 L26.32000617327823,-12.313053027184985 L26.202474363454304,-12.344121734274927 L26.073516822578497,-12.373256762843187 L25.93390039512333,-12.400284861791285 L25.784455308502736,-12.42504530885249 L25.62607023613466,-12.447390866324865 L25.459687012955243,-12.467188656618493 L25.28629503480865,-12.484320952410478 L25.106925375016548,-12.498685876709052 " />
			<path d="M25.106925375016527,-12.498685876709054 L24.87166281362608,-12.51283387740913 L24.630712321364314,-12.52222542751754 L24.386394383188648,-12.526770081272792 L24.14106191440148,-12.526424071174864 L23.897077600789604,-12.521190729490147 L23.656791144668492,-12.5111204561599 L23.42251663596453,-12.496310233421266 L23.19651026626401,-12.476902691815308 L22.9809486004548,-12.453084736576933 L22.77790761521663,-12.425085747635308 L22.589342706230845,-12.39317537055974 L22.417069856651036,-12.357660919725458 L22.262748148192575,-12.318884418708167 L22.19279056661547,-12.298388468296555 L22.127863783268747,-12.277219306410057 L22.068124212460393,-12.255427931413859 L22.01371577204906,-12.233066840639024 L21.964769536733314,-12.21018990391183 L21.921403422281223,-12.186852233776643 " />
			<path d="M22.85818242090476,-3.6224609226411646 L22.85818242090476,-2.643346896930291 " />
			<path d="M22.494797645275668,-3.411373935312195 L22.494797645275668,-2.4322599096013215 " />
			<path d="M22.85818242090476,-9.497145076906406 L22.85818242090476,-8.518031051195534 " />
			<path d="M22.494797645275668,-9.286058089577436 L22.494797645275668,-8.306944063866563 " />
			<path d="M26.78104931319626,-11.431473395232654 L26.779341553054056,-11.39973165291872 L26.77420139666252,-11.368157395188094 L26.765623379171366,-11.336917841357936 L26.753578715084156,-11.306157693603149 L26.738015298258283,-11.275999136956395 L26.718857701904966,-11.24654183930809 L26.696007178589262,-11.217862951406401 L26.669341660230067,-11.190017106857251 L26.63197760540546,-11.157619426258876 L26.588755741549193,-11.12653450149504 L26.53957281164564,-11.096763692970955 L26.484376749437377,-11.068274103575568 L26.420848405296315,-11.040063603771403 L26.350849081458524,-11.013114105597337 L26.27443407969524,-10.987398108757974 L26.191703738320506,-10.962904384980572 L26.10280343219117,-10.939637978015048 L26.007923572706886,-10.917620203633982 L25.907299607810124,-10.896888649632608 L25.80121202198615,-10.87749717582882 L25.781049313196263,-10.87406516998748 " />
			<path d="M22.781049313196256,-10.874061503408399 L22.673085774135412,-10.89337664546232 L22.57062764932517,-10.914060331530544 L22.47396909887967,-10.936057974643658 L22.38335826510339,-10.959330660582683 L22.29899727249115,-10.983855147879082 L22.221042227728113,-11.009623867814748 L22.149603219689787,-11.036644924422017 L22.084744319442013,-11.064942094483664 L22.039143109596377,-11.087716807456703 L21.99746624640101,-11.111316192631447 L21.959693465961852,-11.13576349428452 L21.925787325578508,-11.16107022831239 L21.885461189788753,-11.197164308394568 L21.852069148582654,-11.234799049335153 L21.823958314445594,-11.276214057664852 L21.80511021784774,-11.313961527757892 L21.79172295836031,-11.35259983501134 L21.78371518153381,-11.39187160905562 L21.781049313196256,-11.43147339523265 " />
			<path d="M21.781049313196256,-11.431473395232658 L21.781049313196256,-12.018941810659182 " />
			<path d="M26.78104931319626,-11.431473395232654 L26.78104931319626,-12.01894181065918 " />
			<path d="M25.055051226303817,-12.65980190374258 L24.83514455722503,-12.67303680676079 L24.610064654581297,-12.681834304238857 L24.381947524070725,-12.686116581945127 L24.15291442727278,-12.685845803930007 L23.925071881648314,-12.68102411252597 L23.700511660539554,-12.671693628347551 L23.481310793170106,-12.657936450291352 L23.269531564644936,-12.639874655536035 L23.098996937725936,-12.621514559724087 L22.93610405989346,-12.600348063707976 L22.781778909019973,-12.576473744785126 L22.636911026301988,-12.550012330263257 L22.502310805021626,-12.521086688644028 L22.378666779308166,-12.489801820806665 L22.26650291289963,-12.456224851191598 L22.16613588790432,-12.420365018984091 L22.09362512014791,-12.38960473045088 L22.029034603603083,-12.357248522092117 L21.972343314655433,-12.323220365718072 L21.92346745341183,-12.287468230199744 L21.884893719084157,-12.252681434385343 L21.85273807632483,-12.216468894188097 L21.82443961182098,-12.17502734220752 L21.805379012600785,-12.137090059582462 L21.79184192588743,-12.098248230505924 L21.78374486389552,-12.058762753897732 L21.781049313196256,-12.018941810659184 " />
			<path d="M26.781049313196263,-12.01894181065918 L26.77934155305405,-12.050683552973116 L26.774201396662516,-12.082257810703737 L26.76562337917137,-12.113497364533893 L26.753578715084167,-12.144257512288679 L26.73801529825829,-12.174416068935432 L26.718857701904966,-12.203873366583737 L26.69600717858926,-12.232552254485427 L26.669341660230078,-12.260398099034575 L26.63197760540548,-12.292795779632943 L26.58875574154922,-12.323880704396773 L26.539572811645684,-12.353651512920857 L26.48437674943743,-12.38214110231624 L26.428652523990067,-12.407094124902283 L26.36796539115272,-12.43104649861996 L26.302295274404223,-12.45403189933618 L26.231671841242047,-12.476067388811577 L26.156169585533178,-12.49715567419965 L26.075902909865054,-12.517287367545885 L25.901703946708484,-12.554596507749507 L25.71060147621534,-12.587763664593018 L25.504445832814117,-12.616508779463073 L25.28525379614795,-12.64057518393453 L25.05505122630383,-12.659801903742576 " />
			<path d="M22.399356579581035,-3.2971946898703535 L22.399356579581035,-2.31808066415948 " />
			<path d="M26.162742046799835,-3.508282078934495 L26.162742046799835,-2.5291680532236214 " />
			<path d="M25.781049313196256,-2.4236243586926207 L25.781049313196256,18.137770181235723 " />
			<path d="M22.78104931319626,-2.4236243586926225 L22.78104931319626,18.13777018123572 " />
			<path d="M22.399356579581035,-9.171878844135595 L22.399356579581035,-8.192764818424722 " />
			<path d="M26.162742046799835,-9.382966233199737 L26.162742046799835,-8.403852207488864 " />
			<path d="M25.781049313196256,-8.298308512957862 L25.781049313196256,-3.7265055445646054 " />
			<path d="M22.78104931319626,-8.298308512957863 L22.78104931319626,-3.5776549857389446 " />
			<path d="M25.781049313196256,-11.235650590090481 L25.781049313196256,-9.601189698829845 " />
			<path d="M22.78104931319626,-11.235650590090483 L22.78104931319626,-9.452339140004185 " />

       </g>
    </g>
    <g transform="translate(20,210.0)" stroke="rgb(0,0,255)">
        <line x1="30" y1="-30" x2="75" y2="-33" stroke-width="3" stroke="#000000" />
         <text x="80" y="-30" style="stroke:#000000">X </text>

        <line x1="30" y1="-30" x2="30" y2="-75" stroke-width="3" stroke="#000000" />
         <text x="25" y="-85" style="stroke:#000000">Y </text>

        <line x1="30" y1="-30" x2="58" y2="-15" stroke-width="3" stroke="#000000" />
         <text x="65" y="-5" style="stroke:#000000">Z </text>
        <!--
            <line x1="0" y1="0" x2="5.782334189269574" y2="0" stroke-width="3" />
            <text x="0" y="20" style="stroke:#000000">1  mm </text>
        -->
    </g>
</svg>
